{
  "accessors": [
    {
      "bufferView": 0,
      "componentType": 5126,
      "count": 28674,
      "max": [
        0.623759,
        0.548676,
        0.548676
      ],
      "min": [
        0.0,
        -0.066461,
        0.066461
      ],
      "type": "VEC3"
    },
    {
      "bufferView": 1,
      "componentType": 5121,
      "count": 28674,
      "normalized": true,
      "type": "VEC4"
    },
    {
      "bufferView": 2,
      "componentType": 5126,
      "count": 28674,
      "type": "VEC3"
    },
    {
      "bufferView": 3,
      "componentType": 5125,
      "count": 168516,
      "type": "SCALAR"
    },
    {
      "bufferView": 4,
      "componentType": 5125,
      "count": 1172,
      "type": "SCALAR"
    }
  ],
  "asset": {
    "generator": "vclib-tinygltf-exporter",
    "version": "2.0"
  },
  "bufferViews": [
    {
      "buffer": 0,
      "byteLength": 344088,
      "target": 34962
    },
    {
      "buffer": 1,
      "byteLength": 114696,
      "target": 34962
    },
    {
      "buffer": 2,
      "byteLength": 344088,
      "target": 34962
    },
    {
      "buffer": 3,
      "byteLength": 674064,
      "target": 34963
    },
    {
      "buffer": 4,
      "byteLength": 4688,
      "target": 34963
    }
  ],
  "buffers": [
    {
      "byteLength": 344088,
      "uri": "data:application/octet-stream;base64,"
    },
    {
      "byteLength": 114696,
      "uri": "data:application/octet-stream;base64,"
    },
    {
      "byteLength": 344088,
      "uri": "data:application/octet-stream;base64,"
    },
    {
      "byteLength": 674064,
      "uri": "data:application/octet-stream;base64,"
    },
    {
      "byteLength": 4688,
      "uri": "data:application/octet-stream;base64,"
    }
  ],
  "meshes": [
    {
      "primitives": [
        {
          "attributes": {
            "COLOR_0": 1,
            "NORMAL": 2,
            "POSITION": 0
          },
          "indices": 3,
          "mode": 4
        },
        {
          "attributes": {
            "COLOR_0": 1,
            "NORMAL": 2,
            "POSITION": 0
          },
          "indices": 4,
          "mode": 1
        }
      ]
    }
  ],
  "nodes": [
    {
      "mesh": 0
    }
  ],
  "scene": 0,
  "scenes": [
    {
      "nodes": [
        0
      ]
    }
  ]
}
