{
  "accessors": [
    {
      "bufferView": 0,
      "componentType": 5126,
      "count": 5021,
      "max": [
        2.17357,
        4.12102,
        4.94798
      ],
      "min": [
        -2.17357,
        -3.96522,
        -2.99803
      ],
      "type": "VEC3"
    },
    {
      "bufferView": 1,
      "componentType": 5126,
      "count": 5021,
      "type": "VEC3"
    },
    {
      "bufferView": 2,
      "componentType": 5125,
      "count": 28824,
      "type": "SCALAR"
    }
  ],
  "asset": {
    "generator": "vclib-tinygltf-exporter",
    "version": "2.0"
  },
  "bufferViews": [
    {
      "buffer": 0,
      "byteLength": 60252,
      "target": 34962
    },
    {
      "buffer": 1,
      "byteLength": 60252,
      "target": 34962
    },
    {
      "buffer": 2,
      "byteLength": 115296,
      "target": 34963
    }
  ],
  "buffers": [
    {
      "byteLength": 60252,
      "uri": "data:application/octet-stream;base64,"
    },
    {
      "byteLength": 60252,
      "uri": "data:application/octet-stream;base64,"
    },
    {
      "byteLength": 115296,
      "uri": "data:application/octet-stream;base64,"
    }
  ],
  "meshes": [
    {
      "primitives": [
        {
          "attributes": {
            "NORMAL": 1,
            "POSITION": 0
          },
          "indices": 2,
          "mode": 4
        }
      ]
    }
  ],
  "nodes": [
    {
      "mesh": 0
    }
  ],
  "scene": 0,
  "scenes": [
    {
      "nodes": [
        0
      ]
    }
  ]
}
