ply
format ascii 1.0
comment VCGLIB generated
element vertex 16
property float x
property float y
property float z
element face 24
property list uchar int vertex_indices
end_header
-1 1 -1 
1 1 -1 
-1 3 -1 
1 3 -1 
-1 1 1 
1 1 1 
-1 3 1 
1 3 1 
-1 -1 -1 
1 -1 -1 
-1 1 -1 
1 1 -1 
-1 -1 1 
1 -1 1 
-1 1 1 
1 1 1 
3 2 1 0 
3 1 2 3 
3 4 2 0 
3 2 4 6 
3 1 4 0 
3 4 1 5 
3 6 5 7 
3 5 6 4 
3 3 6 7 
3 6 3 2 
3 5 3 7 
3 3 5 1 
3 10 9 8 
3 9 10 11 
3 12 10 8 
3 10 12 14 
3 9 12 8 
3 12 9 13 
3 14 13 15 
3 13 14 12 
3 11 14 15 
3 14 11 10 
3 13 11 15 
3 11 13 9 
