ply
format ascii 1.0
comment TextureFile TextureDouble_A.png
comment TextureFile TextureDouble_B.png
element vertex 8
property float x
property float y
property float z
element face 6
property list uchar int vertex_indices
property list uchar float texcoord
property int texnumber
end_header
0 0 0 
1 0 0 
0 1 0 
1 1 0 
0 0 1 
1 0 1 
0 1 1 
1 1 1 
4 2 3 1 0 8 0.5 0 1 1 0 0.5 0.5 0.5 1
4 4 6 2 0 8 0.5 0 1 0 1 0.5 0.5 0.5 1
4 1 5 4 0 8 0 0.5 0 0 0.5 0 0.5 0.5 1
4 6 4 5 7 8 0 0.5 0 0 0.5 0 0.5 0.5 0
4 3 2 6 7 8 0.5 1 0 1 0 0.5 0.5 0.5 0
4 5 1 3 7 8 0.5 0 1 0 1 0.5 0.5 0.5 0
